<svg xmlns="http://www.w3.org/2000/svg" version="1.1" xmlns:xlink="http://www.w3.org/1999/xlink" xmlns:svgjs="http://svgjs.dev/svgjs" width="1000" height="356" viewBox="0 0 1000 356"><g transform="matrix(1,0,0,1,0.16994382022460286,-0.13735433070868908)"><svg viewBox="0 0 356 127" data-background-color="#1ebbd7" preserveAspectRatio="xMidYMid meet" height="356" width="1000" xmlns="http://www.w3.org/2000/svg" xmlns:xlink="http://www.w3.org/1999/xlink"><g id="tight-bounds" transform="matrix(1,0,0,1,-0.06049999999996203,0.049000000000006594)"><svg viewBox="0 0 356.12052 126.90181704270357" height="126.90181704270357" width="356.12052"><g><svg viewBox="0 0 356.12052 126.90181704270357" height="126.90181704270357" width="356.12052"><g><svg viewBox="0 0 356.12052 126.90181704270357" height="126.90181704270357" width="356.12052"><g><path d="M0 126.902v-126.902h356.121v126.902z" fill="#010c80" stroke="transparent" stroke-width="0" rx="0%" data-fill-palette-color="tertiary"></path><path d="M3.283 123.619v-120.336h349.554v120.336z" fill="#1ebbd7" stroke="transparent" stroke-width="0" rx="0%" data-fill-palette-color="quaternary"></path><path d="M9.85 117.052v-107.202h336.421v107.202z" fill="#010c80" stroke="transparent" stroke-width="0" data-fill-palette-color="tertiary"></path></g><g transform="matrix(1,0,0,1,19.69974,19.69974)" id="textblocktransform"><svg viewBox="0 0 316.72104 87.50233704270357" height="87.50233704270357" width="316.72104" id="textblock"><g><svg viewBox="0 0 316.72104 64.39631683848798" height="64.39631683848798" width="316.72104"><g transform="matrix(1,0,0,1,0,0)"><svg width="316.72104" viewBox="-0.05000000447034836 -34.900001525878906 174.58999633789062 35.5" height="64.39631683848798" data-palette-color="#1ebbd7"><path d="M-0.05 0L10.85-34.3 16.5-34.3 27.4 0 22.65 0 20.3-7.65 6.7-7.65 4.35 0-0.05 0ZM7.9-11.65L19.05-11.65 14.4-26.9Q14.05-28 13.6-30.7L13.6-30.7 13.4-30.7Q12.95-27.95 12.6-26.9L12.6-26.9 7.9-11.65ZM42.15 0.6Q36.8 0.6 33.82-2.43 30.85-5.45 30.85-11.15L30.85-11.15 30.85-34.3 35.25-34.3 35.25-10.9Q35.25-7.3 37.07-5.38 38.9-3.45 42.15-3.45L42.15-3.45Q45.4-3.45 47.22-5.38 49.05-7.3 49.05-10.9L49.05-10.9 49.05-34.3 53.45-34.3 53.45-11.15Q53.45-5.45 50.47-2.43 47.5 0.6 42.15 0.6L42.15 0.6ZM67.25 0L67.25-30.3 57.9-30.3 57.9-34.3 81-34.3 81-30.3 71.65-30.3 71.65 0 67.25 0ZM97.24 0.6Q90.84 0.6 87.29-3.9 83.74-8.4 83.74-17.15L83.74-17.15Q83.74-25.9 87.29-30.4 90.84-34.9 97.24-34.9L97.24-34.9Q103.64-34.9 107.19-30.4 110.74-25.9 110.74-17.15L110.74-17.15Q110.74-8.4 107.19-3.9 103.64 0.6 97.24 0.6L97.24 0.6ZM97.24-3.45Q101.44-3.45 103.79-6.6 106.14-9.75 106.14-15.9L106.14-15.9 106.14-18.4Q106.14-24.55 103.79-27.7 101.44-30.85 97.24-30.85L97.24-30.85Q93.04-30.85 90.69-27.7 88.34-24.55 88.34-18.4L88.34-18.4 88.34-15.9Q88.34-9.75 90.69-6.6 93.04-3.45 97.24-3.45L97.24-3.45ZM128.44-14L128.44-17.85 141.84-17.85 141.84 0 138.94 0 137.99-3.8Q134.99 0.6 129.14 0.6L129.14 0.6Q122.59 0.6 119.12-3.85 115.64-8.3 115.64-17.15L115.64-17.15Q115.64-25.9 119.24-30.4 122.84-34.9 129.39-34.9L129.39-34.9Q134.99-34.9 138.42-31.75 141.84-28.6 141.84-22.6L141.84-22.6 137.34-22.6Q137.34-26.75 135.22-28.8 133.09-30.85 129.39-30.85L129.39-30.85Q125.04-30.85 122.64-27.7 120.24-24.55 120.24-18.4L120.24-18.4 120.24-15.9Q120.24-9.7 122.52-6.58 124.79-3.45 129.14-3.45L129.14-3.45Q133.39-3.45 135.37-5.85 137.34-8.25 137.34-13.2L137.34-13.2 137.34-14 128.44-14ZM161.04 0.6Q154.64 0.6 151.09-3.9 147.54-8.4 147.54-17.15L147.54-17.15Q147.54-25.9 151.09-30.4 154.64-34.9 161.04-34.9L161.04-34.9Q167.44-34.9 170.99-30.4 174.54-25.9 174.54-17.15L174.54-17.15Q174.54-8.4 170.99-3.9 167.44 0.6 161.04 0.6L161.04 0.6ZM161.04-3.45Q165.24-3.45 167.59-6.6 169.94-9.75 169.94-15.9L169.94-15.9 169.94-18.4Q169.94-24.55 167.59-27.7 165.24-30.85 161.04-30.85L161.04-30.85Q156.84-30.85 154.49-27.7 152.14-24.55 152.14-18.4L152.14-18.4 152.14-15.9Q152.14-9.75 154.49-6.6 156.84-3.45 161.04-3.45L161.04-3.45Z" opacity="1" transform="matrix(1,0,0,1,0,0)" fill="#1ebbd7" class="wordmark-text-0" data-fill-palette-color="quaternary" id="text-0"></path></svg></g></svg></g><g transform="matrix(1,0,0,1,0,70.96289683848798)"><svg viewBox="0 0 316.72104 16.539440204215595" height="16.539440204215595" width="316.72104"><g transform="matrix(1,0,0,1,0,0)"><svg width="316.72104" viewBox="0.45000001788139343 -35.099998474121094 685.47998046875 35.79999923706055" height="16.539440204215595" data-palette-color="#1ebbd7"><path d="M22.15 0L8.35 0 8.35-1.05 9.8-1.4Q10.8-1.65 11.2-2.25 11.6-2.85 11.65-3.85L11.65-3.85 11.65-12.9 3.6-29.35Q3.1-30.35 2.65-30.85 2.2-31.35 1.35-31.65L1.35-31.65 0.45-32 0.45-33.05 13.7-33.05 13.7-32 12.8-31.7Q11.7-31.35 11.6-30.58 11.5-29.8 12.05-28.6L12.05-28.6 17.75-16 23.9-28.95Q24.35-29.85 24.3-30.7 24.25-31.55 23.25-31.8L23.25-31.8 22.55-32 22.55-33.05 29.1-33.05 29.1-32 28.1-31.7Q27.1-31.4 26.68-30.8 26.25-30.2 25.8-29.2L25.8-29.2 18.85-14.75 18.85-3.85Q18.85-1.8 20.65-1.4L20.65-1.4 22.15-1.05 22.15 0ZM43 0.7L43 0.7Q39.3 0.7 36.52-0.85 33.75-2.4 32.22-5.25 30.7-8.1 30.7-12.05L30.7-12.05Q30.7-16 32.32-18.85 33.95-21.7 36.72-23.23 39.5-24.75 43-24.75L43-24.75Q46.5-24.75 49.27-23.23 52.05-21.7 53.67-18.88 55.3-16.05 55.3-12.05L55.3-12.05Q55.3-8.1 53.77-5.23 52.25-2.35 49.5-0.83 46.75 0.7 43 0.7ZM43-0.7L43-0.7Q44.8-0.7 45.92-1.68 47.05-2.65 47.55-5.1 48.05-7.55 48.05-11.95L48.05-11.95Q48.05-16.4 47.55-18.88 47.05-21.35 45.92-22.33 44.8-23.3 43-23.3L43-23.3Q41.2-23.3 40.1-22.33 39-21.35 38.47-18.88 37.95-16.4 37.95-11.95L37.95-11.95Q37.95-7.55 38.47-5.1 39-2.65 40.1-1.68 41.2-0.7 43-0.7ZM66.55 0.7L66.55 0.7Q64.59 0.7 63-0.03 61.4-0.75 60.47-2.43 59.55-4.1 59.59-6.85L59.59-6.85 59.75-19.4Q59.75-20.5 59.4-21 59.05-21.5 58.15-21.7L58.15-21.7 57.55-21.9 57.55-22.8 66.09-24.45 66.65-23.9 66.4-16.85 66.4-5.5Q66.4-3.8 67.32-3.03 68.25-2.25 69.65-2.25L69.65-2.25Q71.09-2.25 72.27-2.68 73.45-3.1 74.7-3.95L74.7-3.95 74.84-19.35Q74.84-20.5 74.52-20.95 74.2-21.4 73.3-21.65L73.3-21.65 72.75-21.8 72.75-22.7 81.09-24.45 81.65-23.9 81.5-16.85 81.5-3.75Q81.5-2.7 81.77-2.08 82.05-1.45 83-1.15L83-1.15 83.65-0.95 83.65 0 75.2 0.5 74.75-2.65Q73.05-1.2 71.05-0.25 69.05 0.7 66.55 0.7ZM98.19 0L85.69 0 85.69-0.95 86.44-1.2Q87.44-1.45 87.82-2.05 88.19-2.65 88.19-3.65L88.19-3.65 88.19-18.3Q88.14-19.4 87.79-19.98 87.44-20.55 86.44-20.75L86.44-20.75 85.69-20.95 85.69-21.85 93.84-24.75 94.44-24.2 94.89-19.8 94.89-19.45Q95.64-20.85 96.79-22.05 97.94-23.25 99.29-24 100.64-24.75 101.99-24.75L101.99-24.75Q103.89-24.75 104.84-23.75 105.79-22.75 105.79-21.2L105.79-21.2Q105.79-19.5 104.84-18.63 103.89-17.75 102.54-17.75L102.54-17.75Q100.54-17.75 99.09-19.55L99.09-19.55 98.99-19.65Q98.49-20.25 97.87-20.33 97.24-20.4 96.64-19.7L96.64-19.7Q96.14-19.2 95.72-18.53 95.29-17.85 94.94-16.95L94.94-16.95 94.94-3.85Q94.94-2.9 95.34-2.27 95.74-1.65 96.69-1.4L96.69-1.4 98.19-0.95 98.19 0ZM131.09 0L118.54 0 118.54-1.05 119.59-1.35Q120.59-1.65 120.86-2.23 121.14-2.8 121.14-3.85L121.14-3.85Q121.19-6.75 121.19-9.65 121.19-12.55 121.19-15.5L121.19-15.5 121.19-17.55Q121.19-20.45 121.19-23.35 121.19-26.25 121.14-29.15L121.14-29.15Q121.14-30.2 120.89-30.78 120.64-31.35 119.64-31.65L119.64-31.65 118.54-32 118.54-33.05 132.54-33.05Q138.39-33.05 141.56-30.83 144.74-28.6 144.74-24.6L144.74-24.6Q144.74-22.4 143.01-20.15 141.29-17.9 137.74-16.7L137.74-16.7 144.54-3.45Q145.39-1.8 147.19-1.2L147.19-1.2 148.14-1 148.14 0 139.29 0 131.84-15.6 128.24-15.6Q128.24-12.05 128.24-9.2 128.24-6.35 128.29-3.85L128.29-3.85Q128.29-2.85 128.61-2.25 128.94-1.65 129.89-1.4L129.89-1.4 131.09-1.05 131.09 0ZM128.24-17.05L128.24-17.05 130.94-17.05Q134.49-17.05 136.14-18.85 137.79-20.65 137.79-24.35L137.79-24.35Q137.79-28.05 136.21-29.83 134.64-31.6 131.14-31.6L131.14-31.6 128.29-31.6Q128.29-29.65 128.26-27.63 128.24-25.6 128.24-23.08 128.24-20.55 128.24-17.05ZM162.19 0.7L162.19 0.7Q158.49 0.7 155.71-0.85 152.94-2.4 151.41-5.25 149.89-8.1 149.89-12.05L149.89-12.05Q149.89-16 151.51-18.85 153.14-21.7 155.91-23.23 158.69-24.75 162.19-24.75L162.19-24.75Q165.69-24.75 168.46-23.23 171.24-21.7 172.86-18.88 174.49-16.05 174.49-12.05L174.49-12.05Q174.49-8.1 172.96-5.23 171.44-2.35 168.69-0.83 165.94 0.7 162.19 0.7ZM162.19-0.7L162.19-0.7Q163.99-0.7 165.11-1.68 166.24-2.65 166.74-5.1 167.24-7.55 167.24-11.95L167.24-11.95Q167.24-16.4 166.74-18.88 166.24-21.35 165.11-22.33 163.99-23.3 162.19-23.3L162.19-23.3Q160.39-23.3 159.29-22.33 158.19-21.35 157.66-18.88 157.14-16.4 157.14-11.95L157.14-11.95Q157.14-7.55 157.66-5.1 158.19-2.65 159.29-1.68 160.39-0.7 162.19-0.7ZM184.03 0.7L184.03 0.7Q181.18 0.7 179.21-0.93 177.23-2.55 177.23-5.6L177.23-5.6Q177.23-8 179.56-10.03 181.88-12.05 186.88-13L186.88-13Q187.73-13.2 188.86-13.38 189.98-13.55 191.08-13.75L191.08-13.75 191.08-17.3Q191.08-20.7 190.23-22 189.38-23.3 187.53-23.3L187.53-23.3 187.38-23.3Q186.23-23.3 185.56-22.58 184.88-21.85 184.68-20.2L184.68-20.2 184.53-19.55Q184.38-17.55 183.48-16.63 182.58-15.7 181.23-15.7L181.23-15.7Q179.98-15.7 179.16-16.48 178.33-17.25 178.33-18.5L178.33-18.5Q178.33-20.55 179.73-21.95 181.13-23.35 183.46-24.05 185.78-24.75 188.48-24.75L188.48-24.75Q192.93-24.75 195.28-22.6 197.63-20.45 197.63-15.6L197.63-15.6 197.63-4.45Q197.63-2.3 199.68-2.3L199.68-2.3 200.83-2.3 201.33-1.75Q200.43-0.6 199.33 0.03 198.23 0.65 196.33 0.65L196.33 0.65Q194.18 0.65 192.91-0.38 191.63-1.4 191.23-3.1L191.23-3.1Q189.63-1.4 188.08-0.35 186.53 0.7 184.03 0.7ZM186.93-2.5L186.93-2.5Q187.93-2.5 188.83-2.95 189.73-3.4 191.08-4.45L191.08-4.45 191.08-12.45Q189.78-12.25 188.43-11.95L188.43-11.95Q186.28-11.45 184.96-10.1 183.63-8.75 183.63-6.45L183.63-6.45Q183.63-4.45 184.56-3.48 185.48-2.5 186.93-2.5ZM212.98 0.7L212.98 0.7Q210.03 0.7 207.68-0.63 205.33-1.95 204-4.73 202.68-7.5 202.68-11.8L202.68-11.8Q202.68-16.1 204.18-18.98 205.68-21.85 208.18-23.3 210.68-24.75 213.68-24.75L213.68-24.75Q215.48-24.75 217.13-24.33 218.78-23.9 220.03-23.05L220.03-23.05 220.03-29.55Q220.03-30.6 219.71-31.08 219.38-31.55 218.38-31.8L218.38-31.8 217.38-32 217.38-32.95 226.08-35.1 226.73-34.65 226.53-27.6 226.53-3.55Q226.53-2.6 226.88-1.98 227.23-1.35 228.13-1.1L228.13-1.1 228.68-0.95 228.68 0 220.38 0.55 219.93-1.55Q218.58-0.5 216.83 0.1 215.08 0.7 212.98 0.7ZM215.73-1.6L215.73-1.6Q217.88-1.6 219.78-3L219.78-3 219.78-21.6Q217.93-22.75 215.78-22.75L215.78-22.75Q213.33-22.75 211.58-20.18 209.83-17.6 209.83-11.9L209.83-11.9Q209.83-6.2 211.48-3.9 213.13-1.6 215.73-1.6ZM251.32 0.7L251.32 0.7Q248.22 0.7 246.45-0.83 244.68-2.35 244.68-5.8L244.68-5.8Q244.68-7 244.7-8.08 244.72-9.15 244.72-10.6L244.72-10.6 244.72-22.45 241.18-22.45 241.18-23.55 242.53-23.75Q243.97-24 245-24.65 246.03-25.3 246.88-26.45L246.88-26.45 250.13-30.95 251.63-30.95 251.47-24 257.18-24 257.18-22.45 251.43-22.45 251.43-5.4Q251.43-3.6 252.2-2.7 252.97-1.8 254.13-1.8L254.13-1.8Q255.13-1.8 255.93-2.27 256.73-2.75 257.52-3.55L257.52-3.55 258.18-2.8Q257.23-1.15 255.53-0.23 253.82 0.7 251.32 0.7ZM272.32 0.7L272.32 0.7Q268.62 0.7 265.85-0.85 263.07-2.4 261.55-5.25 260.02-8.1 260.02-12.05L260.02-12.05Q260.02-16 261.65-18.85 263.27-21.7 266.05-23.23 268.82-24.75 272.32-24.75L272.32-24.75Q275.82-24.75 278.6-23.23 281.37-21.7 283-18.88 284.62-16.05 284.62-12.05L284.62-12.05Q284.62-8.1 283.1-5.23 281.57-2.35 278.82-0.83 276.07 0.7 272.32 0.7ZM272.32-0.7L272.32-0.7Q274.12-0.7 275.25-1.68 276.37-2.65 276.87-5.1 277.37-7.55 277.37-11.95L277.37-11.95Q277.37-16.4 276.87-18.88 276.37-21.35 275.25-22.33 274.12-23.3 272.32-23.3L272.32-23.3Q270.52-23.3 269.42-22.33 268.32-21.35 267.8-18.88 267.27-16.4 267.27-11.95L267.27-11.95Q267.27-7.55 267.8-5.1 268.32-2.65 269.42-1.68 270.52-0.7 272.32-0.7ZM310.57 0L298.02 0 298.02-1.05 299.07-1.35Q300.07-1.65 300.34-2.23 300.62-2.8 300.62-3.85L300.62-3.85Q300.67-6.75 300.67-9.65 300.67-12.55 300.67-15.5L300.67-15.5 300.67-17.55Q300.67-20.45 300.67-23.35 300.67-26.25 300.62-29.15L300.62-29.15Q300.62-30.2 300.37-30.78 300.12-31.35 299.12-31.65L299.12-31.65 298.02-32 298.02-33.05 312.02-33.05Q317.87-33.05 321.04-30.83 324.22-28.6 324.22-24.6L324.22-24.6Q324.22-22.4 322.49-20.15 320.77-17.9 317.22-16.7L317.22-16.7 324.02-3.45Q324.87-1.8 326.67-1.2L326.67-1.2 327.62-1 327.62 0 318.77 0 311.32-15.6 307.72-15.6Q307.72-12.05 307.72-9.2 307.72-6.35 307.77-3.85L307.77-3.85Q307.77-2.85 308.09-2.25 308.42-1.65 309.37-1.4L309.37-1.4 310.57-1.05 310.57 0ZM307.72-17.05L307.72-17.05 310.42-17.05Q313.97-17.05 315.62-18.85 317.27-20.65 317.27-24.35L317.27-24.35Q317.27-28.05 315.69-29.83 314.12-31.6 310.62-31.6L310.62-31.6 307.77-31.6Q307.77-29.65 307.74-27.63 307.72-25.6 307.72-23.08 307.72-20.55 307.72-17.05ZM341.67-24.75L341.67-24.75Q344.81-24.75 347.06-23.45 349.31-22.15 350.54-19.88 351.76-17.6 351.76-14.65L351.76-14.65Q351.76-14 351.72-13.43 351.67-12.85 351.51-12.35L351.51-12.35 336.47-12.35Q336.51-7.2 338.39-4.95 340.26-2.7 343.87-2.7L343.87-2.7Q346.37-2.7 347.92-3.53 349.47-4.35 350.76-5.85L350.76-5.85 351.56-5.1Q350.06-2.35 347.49-0.83 344.92 0.7 341.37 0.7L341.37 0.7Q337.81 0.7 335.12-0.8 332.42-2.3 330.89-5.13 329.37-7.95 329.37-11.9L329.37-11.9Q329.37-16 331.14-18.85 332.92-21.7 335.74-23.23 338.56-24.75 341.67-24.75ZM341.42-23.3L341.42-23.3Q339.97-23.3 338.89-22.48 337.81-21.65 337.19-19.58 336.56-17.5 336.47-13.75L336.47-13.75 345.42-13.75Q345.97-18.8 345.01-21.05 344.06-23.3 341.42-23.3ZM365.76 0L354.31 0 354.31-0.95 355.11-1.15Q356.76-1.65 356.76-3.6L356.76-3.6 356.76-18.35Q356.71-19.4 356.41-19.98 356.11-20.55 355.11-20.75L355.11-20.75 354.31-20.95 354.31-21.85 362.41-24.75 363.01-24.2 363.36-21.1Q365.16-22.7 367.39-23.73 369.61-24.75 371.76-24.75L371.76-24.75Q375.06-24.75 376.84-22.95 378.61-21.15 378.61-17.45L378.61-17.45 378.61-3.55Q378.61-1.6 380.41-1.1L380.41-1.1 380.96-0.95 380.96 0 369.46 0 369.46-0.95 370.21-1.15Q371.86-1.7 371.86-3.6L371.86-3.6 371.86-18.45Q371.86-20.2 371.11-21 370.36-21.8 368.61-21.8L368.61-21.8Q366.16-21.8 363.51-19.65L363.51-19.65 363.51-3.55Q363.51-1.6 365.26-1.1L365.26-1.1 365.76-0.95 365.76 0ZM392.41 0.7L392.41 0.7Q389.31 0.7 387.53-0.83 385.76-2.35 385.76-5.8L385.76-5.8Q385.76-7 385.78-8.08 385.81-9.15 385.81-10.6L385.81-10.6 385.81-22.45 382.26-22.45 382.26-23.55 383.61-23.75Q385.06-24 386.08-24.65 387.11-25.3 387.96-26.45L387.96-26.45 391.21-30.95 392.71-30.95 392.56-24 398.26-24 398.26-22.45 392.51-22.45 392.51-5.4Q392.51-3.6 393.28-2.7 394.06-1.8 395.21-1.8L395.21-1.8Q396.21-1.8 397.01-2.27 397.81-2.75 398.61-3.55L398.61-3.55 399.26-2.8Q398.31-1.15 396.61-0.23 394.91 0.7 392.41 0.7ZM408.16 0.7L408.16 0.7Q405.31 0.7 403.33-0.93 401.36-2.55 401.36-5.6L401.36-5.6Q401.36-8 403.68-10.03 406.01-12.05 411.01-13L411.01-13Q411.86-13.2 412.98-13.38 414.11-13.55 415.21-13.75L415.21-13.75 415.21-17.3Q415.21-20.7 414.36-22 413.51-23.3 411.66-23.3L411.66-23.3 411.51-23.3Q410.36-23.3 409.68-22.58 409.01-21.85 408.81-20.2L408.81-20.2 408.66-19.55Q408.51-17.55 407.61-16.63 406.71-15.7 405.36-15.7L405.36-15.7Q404.11-15.7 403.28-16.48 402.46-17.25 402.46-18.5L402.46-18.5Q402.46-20.55 403.86-21.95 405.26-23.35 407.58-24.05 409.91-24.75 412.61-24.75L412.61-24.75Q417.06-24.75 419.41-22.6 421.76-20.45 421.76-15.6L421.76-15.6 421.76-4.45Q421.76-2.3 423.81-2.3L423.81-2.3 424.96-2.3 425.46-1.75Q424.56-0.6 423.46 0.03 422.36 0.65 420.46 0.65L420.46 0.65Q418.31 0.65 417.03-0.38 415.76-1.4 415.36-3.1L415.36-3.1Q413.76-1.4 412.21-0.35 410.66 0.7 408.16 0.7ZM411.06-2.5L411.06-2.5Q412.06-2.5 412.96-2.95 413.86-3.4 415.21-4.45L415.21-4.45 415.21-12.45Q413.91-12.25 412.56-11.95L412.56-11.95Q410.41-11.45 409.08-10.1 407.76-8.75 407.76-6.45L407.76-6.45Q407.76-4.45 408.68-3.48 409.61-2.5 411.06-2.5ZM438.35 0L426.7 0 426.7-0.95 427.45-1.15Q429.1-1.7 429.1-3.65L429.1-3.65Q429.1-5.35 429.13-7.08 429.15-8.8 429.15-10.5L429.15-10.5 429.15-29.5Q429.15-30.55 428.8-31.08 428.45-31.6 427.45-31.85L427.45-31.85 426.7-32.05 426.7-33 435.45-35.1 436.1-34.65 435.9-27.6 435.9-3.65Q435.95-2.65 436.33-2.02 436.7-1.4 437.65-1.15L437.65-1.15 438.35-0.95 438.35 0ZM476.5 0L451.7 0 451.7-1.05 452.7-1.4Q453.6-1.65 453.95-2.27 454.3-2.9 454.35-4L454.35-4 454.35-29.15Q454.3-30.2 454-30.78 453.7-31.35 452.75-31.65L452.75-31.65 451.7-32 451.7-33.05 475.5-33.05 475.85-25.05 474.45-25.05 472.45-29.55Q472.05-30.5 471.55-31.03 471.05-31.55 470.05-31.55L470.05-31.55 461.55-31.55Q461.5-28.45 461.5-25.18 461.5-21.9 461.5-17.8L461.5-17.8 466.45-17.8Q467.45-17.8 467.97-18.32 468.5-18.85 468.95-19.75L468.95-19.75 469.8-21.65 470.9-21.65 470.9-12.4 469.8-12.4 468.9-14.3Q468.5-15.2 468-15.75 467.5-16.3 466.5-16.3L466.5-16.3 461.5-16.3Q461.5-12.7 461.5-10.1 461.5-7.5 461.52-5.48 461.55-3.45 461.55-1.5L461.55-1.5 471.15-1.5Q472.15-1.5 472.7-2.02 473.25-2.55 473.6-3.5L473.6-3.5 475.45-8 476.85-8 476.5 0ZM486.85 0L478.9 0 478.9-0.95 480.25-1.25Q481.35-1.5 482.02-1.95 482.7-2.4 483.35-3.3L483.35-3.3 488.8-10.9 482.35-21.1Q481.85-21.85 481.37-22.25 480.9-22.65 480.05-22.85L480.05-22.85 479.2-23.05 479.2-24 491.7-24 491.7-23.05 490.95-22.85Q490.05-22.65 489.87-22.08 489.7-21.5 490.2-20.7L490.2-20.7 494.05-14.85 498.15-20.55Q498.7-21.35 498.67-21.95 498.65-22.55 497.7-22.75L497.7-22.75 496.6-23.05 496.6-24 504.3-24 504.3-23.05 503.1-22.8Q502.05-22.55 501.45-22.08 500.85-21.6 500.2-20.7L500.2-20.7 494.85-13.65 501.4-3.45Q502.55-1.75 504.6-1.2L504.6-1.2 505.6-0.95 505.6 0 492.15 0 492.15-0.95 492.9-1.1Q493.8-1.35 494.02-1.95 494.25-2.55 493.7-3.3L493.7-3.3 489.65-9.6 485.25-3.35Q484.7-2.55 484.9-1.95 485.1-1.35 485.95-1.15L485.95-1.15 486.85-0.95 486.85 0ZM519.49 0.7L519.49 0.7Q516.09 0.7 513.34-0.78 510.59-2.25 509.02-5.08 507.44-7.9 507.44-11.95L507.44-11.95Q507.44-16 509.19-18.85 510.94-21.7 513.87-23.23 516.79-24.75 520.29-24.75L520.29-24.75Q523.14-24.75 525.14-23.8 527.14-22.85 528.19-21.38 529.24-19.9 529.24-18.25L529.24-18.25Q529.24-16.85 528.42-16.1 527.59-15.35 526.29-15.35L526.29-15.35Q524.89-15.35 524.02-16.35 523.14-17.35 522.99-18.9L522.99-18.9Q522.94-19.9 523.02-20.6 523.09-21.3 522.99-21.95L522.99-21.95Q522.79-22.8 522.32-23.1 521.84-23.4 520.99-23.4L520.99-23.4Q517.84-23.4 516.17-20.88 514.49-18.35 514.49-12.7L514.49-12.7Q514.49-7.85 516.34-5.25 518.19-2.65 522.09-2.65L522.09-2.65Q524.39-2.65 525.89-3.53 527.39-4.4 528.64-6.05L528.64-6.05 529.44-5.45Q528.19-2.45 525.62-0.88 523.04 0.7 519.49 0.7ZM544.29-24.75L544.29-24.75Q547.44-24.75 549.69-23.45 551.94-22.15 553.17-19.88 554.39-17.6 554.39-14.65L554.39-14.65Q554.39-14 554.34-13.43 554.29-12.85 554.14-12.35L554.14-12.35 539.09-12.35Q539.14-7.2 541.02-4.95 542.89-2.7 546.49-2.7L546.49-2.7Q548.99-2.7 550.54-3.53 552.09-4.35 553.39-5.85L553.39-5.85 554.19-5.1Q552.69-2.35 550.12-0.83 547.54 0.7 543.99 0.7L543.99 0.7Q540.44 0.7 537.74-0.8 535.04-2.3 533.52-5.13 531.99-7.95 531.99-11.9L531.99-11.9Q531.99-16 533.77-18.85 535.54-21.7 538.37-23.23 541.19-24.75 544.29-24.75ZM544.04-23.3L544.04-23.3Q542.59-23.3 541.52-22.48 540.44-21.65 539.82-19.58 539.19-17.5 539.09-13.75L539.09-13.75 548.04-13.75Q548.59-18.8 547.64-21.05 546.69-23.3 544.04-23.3ZM568.69 0L557.04 0 557.04-0.95 557.79-1.15Q559.44-1.7 559.44-3.65L559.44-3.65Q559.44-5.35 559.46-7.08 559.49-8.8 559.49-10.5L559.49-10.5 559.49-29.5Q559.49-30.55 559.14-31.08 558.79-31.6 557.79-31.85L557.79-31.85 557.04-32.05 557.04-33 565.79-35.1 566.44-34.65 566.24-27.6 566.24-3.65Q566.29-2.65 566.66-2.02 567.04-1.4 567.99-1.15L567.99-1.15 568.69-0.95 568.69 0ZM582.69 0L571.04 0 571.04-0.95 571.79-1.15Q573.44-1.7 573.44-3.65L573.44-3.65Q573.44-5.35 573.46-7.08 573.49-8.8 573.49-10.5L573.49-10.5 573.49-29.5Q573.49-30.55 573.14-31.08 572.79-31.6 571.79-31.85L571.79-31.85 571.04-32.05 571.04-33 579.79-35.1 580.44-34.65 580.24-27.6 580.24-3.65Q580.29-2.65 580.66-2.02 581.04-1.4 581.99-1.15L581.99-1.15 582.69-0.95 582.69 0ZM597.43-24.75L597.43-24.75Q600.58-24.75 602.83-23.45 605.08-22.15 606.31-19.88 607.53-17.6 607.53-14.65L607.53-14.65Q607.53-14 607.48-13.43 607.43-12.85 607.28-12.35L607.28-12.35 592.23-12.35Q592.28-7.2 594.16-4.95 596.03-2.7 599.63-2.7L599.63-2.7Q602.13-2.7 603.68-3.53 605.23-4.35 606.53-5.85L606.53-5.85 607.33-5.1Q605.83-2.35 603.26-0.83 600.68 0.7 597.13 0.7L597.13 0.7Q593.58 0.7 590.88-0.8 588.18-2.3 586.66-5.13 585.13-7.95 585.13-11.9L585.13-11.9Q585.13-16 586.91-18.85 588.68-21.7 591.51-23.23 594.33-24.75 597.43-24.75ZM597.18-23.3L597.18-23.3Q595.73-23.3 594.66-22.48 593.58-21.65 592.96-19.58 592.33-17.5 592.23-13.75L592.23-13.75 601.18-13.75Q601.73-18.8 600.78-21.05 599.83-23.3 597.18-23.3ZM621.53 0L610.08 0 610.08-0.95 610.88-1.15Q612.53-1.65 612.53-3.6L612.53-3.6 612.53-18.35Q612.48-19.4 612.18-19.98 611.88-20.55 610.88-20.75L610.88-20.75 610.08-20.95 610.08-21.85 618.18-24.75 618.78-24.2 619.13-21.1Q620.93-22.7 623.16-23.73 625.38-24.75 627.53-24.75L627.53-24.75Q630.83-24.75 632.61-22.95 634.38-21.15 634.38-17.45L634.38-17.45 634.38-3.55Q634.38-1.6 636.18-1.1L636.18-1.1 636.73-0.95 636.73 0 625.23 0 625.23-0.95 625.98-1.15Q627.63-1.7 627.63-3.6L627.63-3.6 627.63-18.45Q627.63-20.2 626.88-21 626.13-21.8 624.38-21.8L624.38-21.8Q621.93-21.8 619.28-19.65L619.28-19.65 619.28-3.55Q619.28-1.6 621.03-1.1L621.03-1.1 621.53-0.95 621.53 0ZM651.03 0.7L651.03 0.7Q647.63 0.7 644.88-0.78 642.13-2.25 640.55-5.08 638.98-7.9 638.98-11.95L638.98-11.95Q638.98-16 640.73-18.85 642.48-21.7 645.4-23.23 648.33-24.75 651.83-24.75L651.83-24.75Q654.68-24.75 656.68-23.8 658.68-22.85 659.73-21.38 660.78-19.9 660.78-18.25L660.78-18.25Q660.78-16.85 659.95-16.1 659.13-15.35 657.83-15.35L657.83-15.35Q656.43-15.35 655.55-16.35 654.68-17.35 654.53-18.9L654.53-18.9Q654.48-19.9 654.55-20.6 654.63-21.3 654.53-21.95L654.53-21.95Q654.33-22.8 653.85-23.1 653.38-23.4 652.53-23.4L652.53-23.4Q649.38-23.4 647.7-20.88 646.03-18.35 646.03-12.7L646.03-12.7Q646.03-7.85 647.88-5.25 649.73-2.65 653.63-2.65L653.63-2.65Q655.93-2.65 657.43-3.53 658.93-4.4 660.18-6.05L660.18-6.05 660.98-5.45Q659.73-2.45 657.15-0.88 654.58 0.7 651.03 0.7ZM675.83-24.75L675.83-24.75Q678.98-24.75 681.23-23.45 683.48-22.15 684.7-19.88 685.93-17.6 685.93-14.65L685.93-14.65Q685.93-14 685.88-13.43 685.83-12.85 685.68-12.35L685.68-12.35 670.63-12.35Q670.68-7.2 672.55-4.95 674.43-2.7 678.03-2.7L678.03-2.7Q680.53-2.7 682.08-3.53 683.63-4.35 684.93-5.85L684.93-5.85 685.73-5.1Q684.23-2.35 681.65-0.83 679.08 0.7 675.53 0.7L675.53 0.7Q671.98 0.7 669.28-0.8 666.58-2.3 665.05-5.13 663.53-7.95 663.53-11.9L663.53-11.9Q663.53-16 665.3-18.85 667.08-21.7 669.9-23.23 672.73-24.75 675.83-24.75ZM675.58-23.3L675.58-23.3Q674.13-23.3 673.05-22.48 671.98-21.65 671.35-19.58 670.73-17.5 670.63-13.75L670.63-13.75 679.58-13.75Q680.13-18.8 679.18-21.05 678.23-23.3 675.58-23.3Z" opacity="1" transform="matrix(1,0,0,1,0,0)" fill="#1ebbd7" class="slogan-text-1" data-fill-palette-color="quaternary" id="text-1"></path></svg></g></svg></g></svg></g></svg></g><g></g></svg></g><defs></defs></svg><rect width="356.12052" height="126.90181704270357" fill="none" stroke="none" visibility="hidden"></rect></g></svg></g></svg>